HIERARCHY
ROOT Hips
{
	OFFSET 0.000000 0.000000 0.000000
	CHANNELS 6 Xposition Yposition Zposition Zrotation Yrotation Xrotation 
	JOINT LHipJoint
	{
		OFFSET 0.000000 0.000000 0.000000
		CHANNELS 3 Zrotation Yrotation Xrotation
		JOINT LeftUpLeg
		{
			OFFSET 1.363060 -1.794630 0.839290
			CHANNELS 3 Zrotation Yrotation Xrotation
			JOINT LeftLeg
			{
				OFFSET 2.448110 -6.726130 0.000000
				CHANNELS 3 Zrotation Yrotation Xrotation
				JOINT LeftFoot
				{
					OFFSET 2.562200 -7.039590 0.000000
					CHANNELS 3 Zrotation Yrotation Xrotation
					JOINT LeftToeBase
					{
						OFFSET 0.157640 -0.433110 2.322550
						CHANNELS 3 Zrotation Yrotation Xrotation
						End Site
						{
							OFFSET 0.000000 0.000000 0.000000
						}
					}
				}
			}
		}
	}
	JOINT RHipJoint
	{
		OFFSET 0.000000 0.000000 0.000000
		CHANNELS 3 Zrotation Yrotation Xrotation
		JOINT RightUpLeg
		{
			OFFSET -1.305520 -1.794630 0.839290
			CHANNELS 3 Zrotation Yrotation Xrotation
			JOINT RightLeg
			{
				OFFSET -2.542530 -6.985550 0.000000
				CHANNELS 3 Zrotation Yrotation Xrotation
				JOINT RightFoot
				{
					OFFSET -2.568260 -7.056230 0.000000
					CHANNELS 3 Zrotation Yrotation Xrotation
					JOINT RightToeBase
					{
						OFFSET -0.164730 -0.452590 2.363150
						CHANNELS 3 Zrotation Yrotation Xrotation
						End Site
						{
							OFFSET 0.000000 0.000000 0.000000
						}
					}
				}
			}
		}
	}
	JOINT LowerBack
	{
		OFFSET 0.000000 0.000000 0.000000
		CHANNELS 3 Zrotation Yrotation Xrotation
		JOINT Spine
		{
			OFFSET 0.028270 2.035590 -0.193380
			CHANNELS 3 Zrotation Yrotation Xrotation
			JOINT Spine1
			{
				OFFSET 0.056720 2.048850 -0.042750
				CHANNELS 3 Zrotation Yrotation Xrotation
				JOINT Neck
				{
					OFFSET 0.000000 0.000000 0.000000
					CHANNELS 3 Zrotation Yrotation Xrotation
					JOINT Neck1
					{
						OFFSET -0.054170 1.746240 0.172020
						CHANNELS 3 Zrotation Yrotation Xrotation
						JOINT Head
						{
							OFFSET 0.104070 1.761360 -0.123970
							CHANNELS 3 Zrotation Yrotation Xrotation
							End Site
							{
								OFFSET 0.000000 0.000000 0.000000
							}
						}
					}
				}
				JOINT LeftShoulder
				{
					OFFSET 0.000000 0.000000 0.000000
					CHANNELS 3 Zrotation Yrotation Xrotation
					JOINT LeftArm
					{
						OFFSET 3.362410 1.200890 -0.311210
						CHANNELS 3 Zrotation Yrotation Xrotation
						JOINT LeftForeArm
						{
							OFFSET 4.983000 -0.000000 -0.000000
							CHANNELS 3 Zrotation Yrotation Xrotation
							JOINT LeftHand
							{
								OFFSET 3.483560 -0.000000 -0.000000
								CHANNELS 3 Zrotation Yrotation Xrotation
								JOINT LeftFingerBase
								{
									OFFSET 0.000000 0.000000 0.000000
									CHANNELS 3 Zrotation Yrotation Xrotation
									JOINT LeftHandIndex1
									{
										OFFSET 0.715260 -0.000000 -0.000000
										CHANNELS 3 Zrotation Yrotation Xrotation
										End Site
										{
											OFFSET 0.000000 0.000000 0.000000
										}
									}
								}
								JOINT LThumb
								{
									OFFSET 0.000000 0.000000 0.000000
									CHANNELS 3 Zrotation Yrotation Xrotation
									End Site
									{
										OFFSET 0.000000 0.000000 0.000000
									}
								}
							}
						}
					}
				}
				JOINT RightShoulder
				{
					OFFSET 0.000000 0.000000 0.000000
					CHANNELS 3 Zrotation Yrotation Xrotation
					JOINT RightArm
					{
						OFFSET -3.136600 1.374050 -0.404650
						CHANNELS 3 Zrotation Yrotation Xrotation
						JOINT RightForeArm
						{
							OFFSET -5.241900 -0.000000 -0.000000
							CHANNELS 3 Zrotation Yrotation Xrotation
							JOINT RightHand
							{
								OFFSET -3.444170 -0.000000 -0.000000
								CHANNELS 3 Zrotation Yrotation Xrotation
								JOINT RightFingerBase
								{
									OFFSET 0.000000 0.000000 0.000000
									CHANNELS 3 Zrotation Yrotation Xrotation
									JOINT RightHandIndex1
									{
										OFFSET -0.622530 -0.000000 -0.000000
										CHANNELS 3 Zrotation Yrotation Xrotation
										End Site
										{
											OFFSET 0.000000 0.000000 0.000000
										}
									}
								}
								JOINT RThumb
								{
									OFFSET 0.000000 0.000000 0.000000
									CHANNELS 3 Zrotation Yrotation Xrotation
									End Site
									{
										OFFSET 0.000000 0.000000 0.000000
									}
								}
							}
						}
					}
				}
			}
		}
	}
}
MOTION
Frames: 4
Frame Time: 0.008333
-9.923833 14.907147 -1.304747 -45.559296 79.041714 -15.187020 -8.025005 -1.986677 0.427167 -9.273577 -0.102602 -83.966994 0.049025 5.190405 63.599555 2.615684 9.959803 -12.536346 -0.279600 -0.000000 -20.238201 11.281706 -2.351645 -5.226349 11.836774 -12.659686 -17.780636 1.519870 -3.326348 52.355422 0.231422 5.448066 -11.156630 -0.297600 -0.000001 -81.300100 -3.573292 1.641973 7.271012 -1.490529 2.013302 -1.539579 -5.095334 2.011036 0.078645 9.544461 -8.377177 -8.749613 -1.665558 -0.082754 -0.730742 0.000000 0.000000 0.000000 0.781060 16.470209 2.868131 -75.560849 27.565528 11.794341 -0.872759 -71.237454 0.005744 -3.071314 1.506522 -0.038653 0.045853 0.082991 0.000000 0.000000 0.000000 0.000000 0.000000 0.000000 0.000000 7.181538 -1.290854 0.994531 53.512910 24.069939 18.585134 179.478305 83.544395 -179.988425 0.581792 5.914362 0.030701 0.048256 -0.496015 -0.000000 0.000000 0.000000 0.000000 0.000000 0.000000 0.000000 
-9.708124 14.871783 -1.295564 -44.763211 78.996464 -14.598303 -8.062294 -1.951929 0.259742 -9.535412 0.170856 -83.691578 0.146061 5.332084 65.294220 2.620117 9.940388 -13.552820 -0.504099 0.000000 -19.377100 11.382841 -2.359449 -5.173153 11.296172 -12.710547 -17.529392 1.233249 -3.383490 53.252814 0.248863 5.228376 -8.936102 -0.151400 -0.000000 -82.149200 -3.998924 1.647198 7.320933 -1.605337 2.022152 -1.556153 -5.199628 2.019874 -0.006168 9.697859 -8.252491 -8.739529 -1.728582 -0.087506 -0.731423 0.000000 0.000000 0.000000 0.651429 16.219936 2.885110 -75.162592 26.895683 11.743293 -0.891912 -70.939535 0.005595 -2.961642 1.573737 -0.039039 0.043327 0.082907 0.000000 0.000000 0.000000 0.000000 0.000000 0.000000 0.000000 7.555861 -1.126452 1.039151 53.839294 23.479078 18.717508 179.490364 83.734964 -179.988504 0.554073 5.950224 0.029323 0.049037 -0.496552 -0.000000 0.000000 0.000000 0.000000 0.000000 0.000000 0.000000 
-9.495513 14.840108 -1.287055 -44.039277 78.996999 -14.051479 -8.099474 -1.913655 0.103161 -9.806650 0.376434 -83.338007 0.221818 5.452872 66.828631 2.655292 10.002253 -14.820326 -0.779000 0.000000 -18.665500 11.476643 -2.355685 -5.127073 10.816787 -12.729323 -17.436939 0.933971 -3.448003 54.311459 0.223671 4.809410 -6.701097 0.001299 0.000000 -82.282000 -4.393936 1.642665 7.375075 -1.713407 2.020008 -1.571413 -5.304424 2.017362 -0.093060 9.828813 -8.116425 -8.722434 -1.797742 -0.092776 -0.731029 0.000000 0.000000 0.000000 0.505302 15.934038 2.905823 -74.752283 26.085060 11.669145 -0.913131 -70.570292 0.005380 -2.797672 1.667050 -0.039117 0.039799 0.083123 0.000000 0.000000 0.000000 0.000000 0.000000 0.000000 0.000000 7.935062 -0.959721 1.078824 54.242981 22.859203 18.822286 179.512459 84.055195 -179.988773 0.502657 5.987187 0.026545 0.050009 -0.496391 -0.000000 0.000000 0.000000 0.000000 0.000000 0.000000 0.000000 
-9.286263 14.812521 -1.278627 -43.228347 79.047290 -13.389350 -8.139111 -1.867937 -0.041649 -10.102787 0.505237 -82.900451 0.278409 5.553754 68.198768 2.721792 10.162904 -16.257156 -1.097700 -0.000000 -18.131900 11.561592 -2.333356 -5.090624 10.371865 -12.731847 -17.514026 0.628664 -3.517364 55.538415 0.156026 4.191053 -4.525042 0.132700 0.000000 -81.672600 -4.787264 1.626734 7.431245 -1.820952 2.005574 -1.588293 -5.410327 2.002161 -0.191386 9.938668 -7.955476 -8.689248 -1.873602 -0.098748 -0.726860 0.000000 0.000000 0.000000 0.331709 15.579495 2.929943 -74.327594 25.190168 11.524444 -0.934741 -70.176535 0.005081 -2.576476 1.784452 -0.038689 0.035395 0.083627 0.000000 0.000000 0.000000 0.000000 0.000000 0.000000 0.000000 8.319702 -0.778159 1.115996 54.733747 22.196513 18.894667 179.544749 84.511873 -179.989207 0.432117 6.021403 0.022565 0.051050 -0.495479 -0.000000 0.000000 0.000000 0.000000 0.000000 0.000000 0.000000 
